<svg id="Group_3" data-name="Group 3" xmlns="http://www.w3.org/2000/svg" xmlns:xlink="http://www.w3.org/1999/xlink" width="70" height="70" viewBox="0 0 70 70">
  <defs>
    <clipPath id="clip-path">
      <rect id="Rectangle_128" data-name="Rectangle 128" width="70" height="70" fill="none"/>
    </clipPath>
  </defs>
  <g id="Group_1" data-name="Group 1" clip-path="url(#clip-path)">
    <path id="Path_357" data-name="Path 357" d="M35,0A35,35,0,1,0,70,35,35,35,0,0,0,35,0" transform="translate(0)" fill="#4473ac"/>
    <path id="Path_358" data-name="Path 358" d="M40.127,5.849A34.278,34.278,0,1,0,74.406,40.127,34.317,34.317,0,0,0,40.127,5.849" transform="translate(-5.127 -5.127)" fill="#fff"/>
    <path id="Path_359" data-name="Path 359" d="M34.663,185.613l-1.924-.636-1.068,3.288-.783-.254,1.069-3.288-1.924-.636-1.872,5.763,7.005,2.332.811-2.5-2.382-.785Z" transform="translate(-24.686 -161.374)" fill="#4473ac"/>
    <path id="Path_360" data-name="Path 360" d="M69.023,126.781a2.4,2.4,0,0,1-.884.822,1.308,1.308,0,0,1-.832.114,1.862,1.862,0,0,1-.712-.317,1.662,1.662,0,0,1-.484-.517,1.4,1.4,0,0,1-.181-.855,2.581,2.581,0,0,1,.507-1.213q.116-.164.312-.392t.408-.432l-1.607-1.555q-.346.328-.643.669a9.965,9.965,0,0,0-.634.822,4.479,4.479,0,0,0-.974,3.246,3.8,3.8,0,0,0,1.725,2.489,4.253,4.253,0,0,0,1.866.754,3.432,3.432,0,0,0,1.915-.285,4.264,4.264,0,0,0,1.687-1.472q.374-.539.636-1,.261-.485.45-.922l-1.963-.971a7.172,7.172,0,0,1-.595,1.016" transform="translate(-55.454 -107.329)" fill="#4473ac"/>
    <path id="Path_361" data-name="Path 361" d="M128.708,65.031a1.231,1.231,0,0,0-.722.059l-.011-.018a1.568,1.568,0,0,0,.661-1.1,2.017,2.017,0,0,0-.3-1.328,2.082,2.082,0,0,0-1.325-1.018,2.984,2.984,0,0,0-2.157.578l-3.308,2.067,3.867,6.289,2.216-1.385L126.4,67.161l.334-.209a.4.4,0,0,1,.324-.061,1.183,1.183,0,0,1,.441.262l1.477,1.178,2.5-1.56q-1.1-.85-1.745-1.256a3.347,3.347,0,0,0-1.025-.484m-2.3-.084a1.232,1.232,0,0,1-.462.413l-.46.288-.778-1.265.505-.316a.8.8,0,0,1,.658-.16.881.881,0,0,1,.444.417q.234.392.093.623" transform="translate(-106.547 -53.985)" fill="#4473ac"/>
    <path id="Path_362" data-name="Path 362" d="M195.776,36.825a3.435,3.435,0,0,0-1.65-1.013,4.661,4.661,0,0,0-4.2,1.125,3.434,3.434,0,0,0-.923,1.7,4.477,4.477,0,0,0,1.015,3.789,3.435,3.435,0,0,0,1.65,1.013,4.661,4.661,0,0,0,4.2-1.125,3.433,3.433,0,0,0,.923-1.7,4.476,4.476,0,0,0-1.015-3.788m-1.644,3.735a1.145,1.145,0,0,1-1.838.492,3.051,3.051,0,0,1-.632-2.359A1.145,1.145,0,0,1,193.5,38.2a3.052,3.052,0,0,1,.632,2.359" transform="translate(-165.606 -31.28)" fill="#4473ac"/>
    <path id="Path_363" data-name="Path 363" d="M264.831,30.652l-1.223-.245a.7.7,0,0,1-.326-.141.262.262,0,0,1-.085-.208.348.348,0,0,1,.19-.329,1.889,1.889,0,0,1,.908-.132,10.058,10.058,0,0,1,1.853.2l.236-1.918q-.473-.091-1.1-.165t-1.381-.091a5.982,5.982,0,0,0-1.733.183,2.337,2.337,0,0,0-1.236.775,2.592,2.592,0,0,0-.491,1.606,2.393,2.393,0,0,0,.157.873,2.14,2.14,0,0,0,.563.838,2.075,2.075,0,0,0,1.066.5l1.107.179a.549.549,0,0,1,.309.126.391.391,0,0,1,.09.3q.006.222-.286.31a3.645,3.645,0,0,1-1,.073,7.5,7.5,0,0,1-.783-.059q-.419-.052-.846-.14l-.28,1.979q.578.1,1.279.173t1.48.089a3.557,3.557,0,0,0,2.369-.633,2.488,2.488,0,0,0,.824-1.989,2.255,2.255,0,0,0-.4-1.406,1.985,1.985,0,0,0-1.259-.748" transform="translate(-228.308 -24.216)" fill="#4473ac"/>
    <path id="Path_364" data-name="Path 364" d="M322.418,34.212l-2.908-.889-2.9,2.884-.02-.006,1.085-3.44-2.553-.781L312.9,39.022l2.553.781,1.113-3.531.02.006.642,4.068,3.02.923-1.02-4.217Z" transform="translate(-274.294 -28.035)" fill="#4473ac"/>
    <path id="Path_365" data-name="Path 365" d="M380.477,58.018l-3.747,6.362,2.309,1.333,3.747-6.362Z" transform="translate(-330.249 -50.859)" fill="#4473ac"/>
    <path id="Path_366" data-name="Path 366" d="M404.552,86.973l3.6-3.765-1.95-1.819-5.082,5.356,3.017,2.813,1.508-1.568Z" transform="translate(-351.628 -71.348)" fill="#4473ac"/>
    <path id="Path_367" data-name="Path 367" d="M437.467,125.211a4.144,4.144,0,0,0,1.647-1.914,2.661,2.661,0,0,0-.025-1.8,6.492,6.492,0,0,0-.862-1.579l-2.036-2.908-6.078,4.191,2.2,3.144a4.946,4.946,0,0,0,1.156,1.213,2.769,2.769,0,0,0,1.695.538,4.234,4.234,0,0,0,2.3-.882m-2.765-1.769a1.725,1.725,0,0,1-1.007-.77l-.372-.532,2.641-1.811.458.654a1.44,1.44,0,0,1,.267,1.04,1.636,1.636,0,0,1-.751,1.08,1.568,1.568,0,0,1-1.238.338" transform="translate(-377.044 -102.571)" fill="#4473ac"/>
    <path id="Path_368" data-name="Path 368" d="M474.006,191.424l1.872-.586-1.872-5.763-7.038,2.231,1.869,5.753,1.872-.586-1.065-3.278.756-.234,1.062,3.268,1.812-.566-1.062-3.268.732-.238Z" transform="translate(-409.353 -162.24)" fill="#4473ac"/>
    <path id="Path_369" data-name="Path 369" d="M126.087,161.374l-3.333-3.972,5.084-2.371-4.573-3.2c-.108-.913-1.483-11.993-4.968-15.59-3.5-3.615-15.086-3.748-15.93-3.753h-.108c-.865.005-12.429.142-15.93,3.753s-4.874,14.785-4.969,15.59l-4.573,3.2,5.084,2.371-3.333,3.972,5.515.972.035.068-2.437,4.221H86.94L87,166.7l-1.478,4.061,5.169-.912-.37,4.233,4.447-2.074,1.809,4.971,3.234-3.854,2.5,4.337,2.5-4.337,3.234,3.854,1.809-4.971,4.447,2.074-.37-4.233,5.169.912-1.478-4.061.058-.065h5.289l-2.437-4.221.036-.068Zm-10.884-20.5c.352,1.776-.223,3.435-1.518,4.012-1.6.71-3.68-.49-4.656-2.682q-.1-.233-.185-.467Zm-25.781,0,6.36.863q-.081.234-.185.467c-.976,2.192-3.06,3.392-4.656,2.682-1.3-.577-1.87-2.235-1.519-4.012m25.9,22.29c-.885.924-5.119.847-8.082,1.039s-4.926,5.734-4.926,5.734-1.963-5.542-4.926-5.734-7.2-.116-8.082-1.039-.693-4.772.424-8.005,5.575-12,12.572-12.008h.013c7,0,11.469,8.775,12.585,12.008s1.309,7.082.423,8.005" transform="translate(-67.313 -116.139)" fill="#4473ac"/>
    <path id="Path_370" data-name="Path 370" d="M202.5,309.192c-3.695.424-7.7,5.735-7.832,6.235-.135-.5-4.137-5.811-7.832-6.235s-4.7,4.849-4.7,6.543,3.04.924,5.427.769a8.1,8.1,0,0,1,4,.308c2.117.5,3.1,3.31,3.1,3.31s.981-2.809,3.1-3.31a8.1,8.1,0,0,1,4-.308c2.386.154,5.427.924,5.427-.769s-1-6.966-4.7-6.543" transform="translate(-159.666 -271.022)" fill="#4473ac"/>
  </g>
</svg>
